<svg version="1.1" id="Layer_1" xmlns="http://www.w3.org/2000/svg" xmlns:xlink="http://www.w3.org/1999/xlink" x="0px" y="0px"
	 width="100%" viewBox="0 0 395 126" enable-background="new 0 0 395 126" xml:space="preserve">
<path fill="#000000" opacity="1.000000" stroke="none" 
	d="
M260.000000,127.000000 
	C173.333359,127.000000 87.166710,127.000000 1.000046,127.000000 
	C1.000031,85.000031 1.000031,43.000061 1.000015,1.000069 
	C132.666611,1.000046 264.333221,1.000046 395.999878,1.000023 
	C395.999908,42.999928 395.999908,84.999855 395.999939,126.999893 
	C350.833344,127.000000 305.666656,127.000000 260.000000,127.000000 
M333.956360,58.705780 
	C333.706696,58.860962 333.573273,59.085377 333.353455,59.421333 
	C333.353455,59.421333 333.201782,59.562119 332.644623,59.944923 
	C330.764496,63.787434 328.649872,67.596298 330.990051,72.776627 
	C332.137299,78.211906 336.053772,80.701607 341.434448,82.847832 
	C346.229279,82.847832 351.024109,82.847832 357.172211,82.847832 
	C355.785950,79.896873 355.123718,77.411446 354.536896,77.429131 
	C352.310608,77.496185 350.108765,78.373474 347.122772,78.990425 
	C346.090332,78.952797 345.057892,78.915169 343.975586,78.432831 
	C343.975586,78.432831 343.828857,78.010063 343.951508,77.257080 
	C343.563049,76.842476 343.231262,76.148987 342.777313,76.056725 
	C338.564178,75.200401 336.767731,72.596130 337.002716,68.413452 
	C337.233582,64.304344 338.350769,60.821735 343.767609,59.698528 
	C347.201416,59.959255 350.635254,60.219982 354.666412,60.526062 
	C355.054047,59.675510 355.690948,58.278004 356.619354,56.240791 
	C351.385681,55.256287 346.985840,52.643452 341.598663,54.996765 
	C341.598663,54.996765 341.151550,54.957451 340.938110,54.460587 
	C340.599915,54.624119 340.261749,54.787651 339.987671,54.982822 
	C339.987671,54.982822 339.990265,54.911369 339.357239,54.990608 
	C338.872833,55.309330 338.388397,55.628056 337.978851,55.961231 
	C337.978851,55.961231 337.973511,55.885143 337.369415,55.984180 
	C336.758392,56.404625 336.147369,56.825073 335.403412,57.384369 
	C335.403412,57.384369 335.339386,57.565632 334.955750,57.706509 
	C334.704132,57.861942 334.570892,58.087433 334.443115,58.469189 
	C334.443115,58.469189 334.338196,58.564949 333.956360,58.705780 
M307.929871,82.004494 
	C309.615784,81.950851 311.301727,81.897217 313.736877,81.993645 
	C314.495880,81.943619 315.254852,81.893593 316.667175,81.968376 
	C317.106689,81.926933 317.546173,81.885483 318.778656,81.994659 
	C319.851562,81.955109 320.924469,81.915565 322.703918,82.001511 
	C322.862213,80.990372 323.020508,79.979240 322.702728,78.233925 
	C318.833771,78.135437 314.964844,78.036949 310.733643,77.210098 
	C310.468933,75.583420 310.204224,73.956749 309.938507,72.323921 
	C321.950867,71.447784 321.950867,71.447784 321.373291,66.977371 
	C319.634827,66.977371 317.849915,66.977371 315.646790,66.267838 
	C314.207001,66.101753 312.767212,65.935669 311.219208,65.757103 
	C311.219208,63.869892 311.219208,62.128174 311.219208,60.803925 
	C315.111908,57.758820 322.338379,63.710316 323.726837,55.499260 
	C321.977295,55.184967 320.499359,55.684429 318.981079,55.901379 
	C317.351257,56.134266 315.683563,56.101665 313.348846,55.852840 
	C311.259918,55.873775 309.170990,55.894707 306.652405,55.216179 
	C306.106567,55.907818 305.093750,56.595108 305.087250,57.291771 
	C305.023010,64.190193 305.125397,71.090179 305.038147,78.730820 
	C305.080200,79.481560 305.122253,80.232307 305.030670,81.644539 
	C305.716339,81.780487 306.402039,81.916443 307.929871,82.004494 
M266.545929,69.165909 
	C266.096527,68.724869 265.647095,68.283829 265.072144,67.920578 
	C265.072144,67.920578 265.218414,67.900162 265.428528,67.103508 
	C263.642395,63.221741 261.938690,59.297256 259.974792,55.507607 
	C259.703156,54.983429 258.144623,55.126137 256.877747,55.602615 
	C255.557846,58.039829 254.237946,60.477043 252.291016,63.264320 
	C250.507126,67.475327 248.723236,71.686333 246.272324,76.286804 
	C245.900269,78.726425 241.972275,82.134064 248.659592,82.933311 
	C249.140091,82.637924 249.620590,82.342537 250.027817,82.022865 
	C250.027817,82.022865 250.042236,82.098686 250.715164,81.773224 
	C253.594543,77.630035 258.845459,76.621597 265.010590,79.777077 
	C266.568298,80.755867 268.126007,81.734657 269.683685,82.713448 
	C269.678680,80.868820 269.721680,79.021843 269.631622,77.181381 
	C269.611481,76.770004 269.124451,76.381462 268.991333,75.250763 
	C268.041656,73.457268 267.091980,71.663765 266.261871,69.946266 
	C266.261871,69.946266 266.338623,69.827202 266.545929,69.165909 
M161.226334,82.726151 
	C163.425720,84.680435 165.412033,84.703758 167.843414,82.023727 
	C175.409592,79.216202 179.240936,72.948692 177.974640,65.450539 
	C177.076996,60.135456 172.054077,56.422718 164.770264,55.314331 
	C162.524765,55.258713 160.279251,55.203094 157.323242,55.227951 
	C154.784500,57.588959 152.245773,59.949970 149.107758,62.773994 
	C148.797256,64.182060 148.486755,65.590126 148.042160,67.742897 
	C148.084412,68.495804 148.126663,69.248718 148.016266,70.753258 
	C149.937424,77.977974 153.207016,81.277794 159.646088,81.970695 
	C160.075821,82.004044 160.505569,82.037392 161.226334,82.726151 
M237.050842,82.034615 
	C237.050842,82.034615 237.034927,82.029305 237.780289,81.582153 
	C237.850388,74.220551 237.974899,66.858719 237.943970,59.497540 
	C237.937897,58.052647 237.330948,56.610271 236.298569,55.003269 
	C235.226105,55.391941 234.153641,55.780613 232.260147,56.384674 
	C232.155991,59.556484 232.051834,62.728298 231.199081,66.291138 
	C227.255219,66.601082 223.311356,66.911026 219.552414,67.206429 
	C218.895996,62.646397 218.351990,58.867325 217.814194,55.131351 
	C216.283752,55.131351 215.147949,55.131351 213.198105,55.426361 
	C213.198105,64.499306 213.198105,73.572243 213.198105,82.558388 
	C215.266418,82.558388 217.059357,82.558388 218.154938,82.558388 
	C217.403091,80.212494 216.739258,78.141174 216.652374,75.804604 
	C217.131027,74.885551 217.609695,73.966499 218.912018,72.972275 
	C222.601257,72.691055 226.290482,72.409836 230.089447,72.568573 
	C230.259857,72.850204 230.509171,73.003716 230.968323,73.940620 
	C230.968323,76.889481 230.968323,79.838341 230.968323,83.412498 
	C233.438232,82.860390 235.248383,82.455757 237.050842,82.034615 
M98.983574,26.382038 
	C98.983574,26.382038 98.839684,25.939419 98.589455,25.186306 
	C95.220634,24.788719 91.855774,24.093628 88.482262,24.048742 
	C77.917213,23.908178 67.346283,23.886372 56.783535,24.104366 
	C53.856319,24.164776 50.949627,25.219561 47.391350,26.125017 
	C44.247940,29.392248 41.104534,32.659481 37.390965,36.117134 
	C36.983482,36.750603 36.576000,37.384071 35.760616,38.774101 
	C35.507767,39.520855 35.033825,40.267757 35.034344,41.014336 
	C35.048077,60.673046 35.110874,80.331718 35.015182,100.774681 
	C36.028137,102.923546 37.041092,105.072411 38.278416,107.788467 
	C39.151867,108.207558 40.025322,108.626640 41.165386,109.614807 
	C41.759750,109.772659 42.354115,109.930511 43.108280,110.589684 
	C43.399490,110.772575 43.690701,110.955467 44.454502,111.852943 
	C59.607212,111.843658 74.759926,111.834373 90.592186,111.966667 
	C91.397743,111.585846 92.203293,111.205017 93.708427,110.941078 
	C97.567436,107.354614 101.490593,103.832603 105.222160,100.118111 
	C105.842453,99.500664 105.627586,98.044228 106.224091,96.226807 
	C106.426521,90.463158 106.628960,84.699501 106.979935,78.020073 
	C106.986618,70.300491 107.057549,62.580063 106.956024,54.861908 
	C106.929771,52.866650 106.362564,50.878513 106.007477,48.058788 
	C106.104439,46.451530 106.386436,44.829708 106.261345,43.239925 
	C105.965599,39.481403 105.476288,35.738110 104.810638,31.364370 
	C103.226196,30.204910 101.641754,29.045450 99.893318,27.391933 
	C99.604187,27.209799 99.315056,27.027662 98.983574,26.382038 
M285.795593,82.951675 
	C286.864105,81.305588 288.734619,79.716293 288.855957,78.003120 
	C289.278687,72.034309 289.095917,66.022606 290.005676,60.015282 
	C291.505188,60.011127 293.128418,60.364571 294.468842,59.900669 
	C295.768585,59.450821 296.777771,58.161270 297.914551,57.240505 
	C296.845734,56.487980 295.794006,55.113598 294.705353,55.083721 
	C287.573730,54.887993 280.434143,54.982925 273.352081,54.982925 
	C272.480286,58.511303 273.436768,60.197277 276.902588,60.022778 
	C278.563568,59.939152 280.233459,60.032787 282.004089,60.971207 
	C282.002167,66.959824 281.824188,72.957573 282.133850,78.930023 
	C282.203064,80.265251 283.982910,81.511787 285.795593,82.951675 
M189.914688,82.987839 
	C193.323853,82.994843 196.751083,83.211815 200.134552,82.920441 
	C201.831512,82.774300 203.448746,81.702477 205.707214,80.728340 
	C204.545731,79.803711 203.471146,78.257469 202.205124,78.080467 
	C199.339493,77.679825 196.379456,77.954445 192.940292,77.954445 
	C192.940292,70.095375 192.940292,62.603424 192.940292,55.146763 
	C190.939880,55.146763 189.463684,55.146763 187.167404,55.427608 
	C187.168671,64.277817 187.169937,73.128029 187.199966,82.610214 
	C187.796738,82.691010 188.393509,82.771797 189.914688,82.987839 
M123.137329,55.048382 
	C122.765533,55.982185 122.083580,56.911907 122.071213,57.850449 
	C121.975677,65.100677 121.978149,72.352882 122.039185,79.603722 
	C122.047882,80.636925 122.535210,81.666100 122.804466,82.710495 
	C124.854073,82.242073 126.453857,81.876457 127.599220,81.614700 
	C128.055115,78.058510 128.445892,75.010338 129.317032,71.263474 
	C131.462662,71.175644 133.638992,71.272903 135.741409,70.924416 
	C136.845779,70.741364 137.820816,69.778046 138.854263,69.167076 
	C137.764267,68.446739 136.737289,67.261330 135.571106,67.103355 
	C133.179092,66.779327 130.712463,67.006065 128.092453,67.006065 
	C128.092453,64.316284 128.092453,62.186096 128.998123,59.995785 
	C131.450043,59.993912 133.918396,59.810883 136.350143,60.031376 
	C140.286835,60.388325 141.589417,58.853123 140.276611,55.145287 
	C138.587448,55.145287 136.796356,55.145287 134.097977,55.003685 
	C130.734512,55.048553 127.371033,55.093418 123.137329,55.048382 
z"/>
<path fill="#D0E5FF" opacity="1.000000" stroke="none" 
	d="
M40.898773,109.045731 
	C40.025322,108.626640 39.151867,108.207558 38.460526,107.289352 
	C38.320183,105.150772 37.997726,103.511307 37.713318,101.413910 
	C37.787498,80.656998 37.823631,60.358006 38.016266,39.750114 
	C38.259071,38.991459 38.345383,38.541702 38.478767,38.069847 
	C38.525841,38.047752 38.566334,37.951958 38.866020,37.723297 
	C42.377289,36.394569 45.564056,34.439926 48.804852,34.345810 
	C61.283978,33.983398 73.790428,33.943363 86.263908,34.402332 
	C89.761345,34.531025 93.180717,36.781208 96.780098,38.447304 
	C97.164375,39.966938 97.615067,41.097843 97.613297,42.228046 
	C97.581055,62.816566 97.494453,83.404999 97.175179,104.144943 
	C95.948547,105.670418 94.966156,107.044411 93.527817,108.554108 
	C76.394379,108.819008 59.716877,108.948212 42.688530,108.985123 
	C41.858044,108.943802 41.378410,108.994766 40.898773,109.045731 
M56.554958,41.924202 
	C53.474907,41.924202 50.394855,41.924202 47.314808,41.924202 
	C47.343761,42.593937 47.372719,43.263672 47.401672,43.933403 
	C56.416100,44.054787 65.431473,44.214603 74.435249,43.902527 
	C74.428154,43.243053 74.421059,42.583584 74.413963,41.924114 
	C68.787788,41.924114 63.161613,41.924114 56.554958,41.924202 
M52.651711,91.899742 
	C56.031197,91.790344 59.410683,91.680946 62.790169,91.571541 
	C62.751343,90.965126 62.712517,90.358704 62.673695,89.752289 
	C57.467079,89.752289 52.260464,89.752289 47.053848,89.752289 
	C47.011585,90.261513 46.969322,90.770729 46.927059,91.279953 
	C48.525707,91.486504 50.124359,91.693054 52.651711,91.899742 
M62.184338,72.237526 
	C62.215923,71.797058 62.436260,71.086693 62.250603,70.956841 
	C59.711075,69.180771 49.156639,69.737541 45.468430,72.698936 
	C51.603378,72.698936 56.551250,72.698936 62.184338,72.237526 
M87.088333,91.858551 
	C87.337837,90.988884 87.587341,90.119225 87.836838,89.249557 
	C84.909889,89.249557 81.982933,89.249557 79.055984,89.249557 
	C79.035820,89.986252 79.015656,90.722946 78.995491,91.459641 
	C81.400604,91.603737 83.805725,91.747841 87.088333,91.858551 
M82.507309,80.050964 
	C80.416451,80.211861 78.325592,80.372749 76.234741,80.533638 
	C76.276871,80.909935 76.319000,81.286240 76.361130,81.662537 
	C80.483818,81.662537 84.606499,81.662537 88.729187,81.662537 
	C88.764374,81.262520 88.799568,80.862503 88.834763,80.462486 
	C87.031601,80.325378 85.228439,80.188271 82.507309,80.050964 
M80.684731,63.214504 
	C83.369591,63.214504 86.054451,63.214504 88.739319,63.214504 
	C88.707726,62.671715 88.676140,62.128922 88.644547,61.586132 
	C84.561974,61.586132 80.479401,61.586132 76.396828,61.586132 
	C76.369621,61.943165 76.342422,62.300194 76.315216,62.657227 
	C77.467972,62.842804 78.620720,63.028385 80.684731,63.214504 
M77.086235,100.934074 
	C80.973610,100.934074 84.860985,100.934074 88.748360,100.934074 
	C88.701721,100.148163 88.655090,99.362251 88.608459,98.576340 
	C84.523521,99.205460 80.438583,99.834587 77.086235,100.934074 
z"/>
<path fill="#25A0DA" opacity="1.000000" stroke="none" 
	d="
M218.088364,73.047455 
	C217.609695,73.966499 217.131027,74.885551 216.172806,75.592728 
	C215.123276,73.569443 214.144577,71.776382 214.062256,69.943069 
	C213.840897,65.015015 214.002563,60.069771 214.012161,55.131351 
	C215.147949,55.131351 216.283752,55.131351 217.814194,55.131351 
	C218.351990,58.867325 218.895996,62.646397 219.552414,67.206429 
	C223.311356,66.911026 227.255219,66.601082 231.756271,66.259109 
	C233.492538,64.495125 234.671616,62.763165 235.893036,61.495964 
	C235.956818,68.638474 235.978226,75.316223 235.597733,81.976517 
	C234.142761,80.833656 232.558868,79.865746 232.166748,78.544220 
	C231.639542,76.767395 232.032074,74.717674 232.029816,72.785088 
	C231.632324,72.866425 231.234848,72.947762 230.837357,73.029099 
	C230.509171,73.003716 230.259857,72.850204 229.766541,72.031677 
	C227.522308,71.325035 225.554016,70.818810 223.692642,71.078674 
	C221.770401,71.347023 219.952118,72.360138 218.088364,73.047455 
z"/>
<path fill="#579BFD" opacity="1.000000" stroke="none" 
	d="
M93.983757,108.418396 
	C94.966156,107.044411 95.948547,105.670418 97.531799,104.026077 
	C98.443184,102.855377 98.753731,101.955025 99.277054,100.910645 
	C99.682678,100.487259 99.875526,100.207909 100.305489,99.949951 
	C100.542610,99.971359 101.004784,99.856743 101.101074,100.006966 
	C101.310936,100.170845 101.424515,100.184502 101.538094,100.198158 
	C101.397369,100.021660 101.256638,99.845161 101.161873,99.524956 
	C101.207832,99.381248 101.464554,99.222664 101.782661,99.327087 
	C102.453636,97.960320 102.806503,96.489128 103.085609,94.553299 
	C103.063034,76.382782 103.114204,58.676891 103.388184,40.718788 
	C103.462425,38.986561 103.313858,37.506546 103.088280,35.669212 
	C102.010025,33.816357 101.008789,32.320824 100.009048,30.457645 
	C100.026138,29.355330 100.041718,28.620663 100.057304,27.885994 
	C101.641754,29.045450 103.226196,30.204910 104.922211,32.143967 
	C105.028740,52.677814 105.005714,72.432114 105.052460,92.186249 
	C105.056236,93.783241 105.538658,95.379105 105.798660,96.975494 
	C105.627586,98.044228 105.842453,99.500664 105.222160,100.118111 
	C101.490593,103.832603 97.567436,107.354614 93.508499,110.591995 
	C93.533623,109.634735 93.758690,109.026566 93.983757,108.418396 
z"/>
<path fill="#2AA3DB" opacity="1.000000" stroke="none" 
	d="
M281.899323,60.046143 
	C280.233459,60.032787 278.563568,59.939152 276.902588,60.022778 
	C273.436768,60.197277 272.480286,58.511303 273.352081,54.982925 
	C280.434143,54.982925 287.573730,54.887993 294.705353,55.083721 
	C295.794006,55.113598 296.845734,56.487980 297.914551,57.240501 
	C296.777771,58.161270 295.768585,59.450821 294.468842,59.900669 
	C293.128418,60.364571 291.505188,60.011127 289.169891,60.099007 
	C287.893463,63.953308 287.699249,67.776421 286.911194,71.472939 
	C286.499023,73.406227 285.043488,75.117065 284.037964,76.468170 
	C284.008606,71.914986 284.162018,67.811501 283.896667,63.735271 
	C283.814117,62.467594 282.597015,61.273773 281.899323,60.046143 
z"/>
<path fill="#29A2DA" opacity="1.000000" stroke="none" 
	d="
M268.852356,75.982407 
	C269.124451,76.381462 269.611481,76.770004 269.631622,77.181381 
	C269.721680,79.021843 269.678680,80.868820 269.683716,82.713440 
	C268.126007,81.734657 266.568298,80.755867 264.933960,79.019791 
	C261.753754,73.829926 257.235260,76.321770 253.456039,76.421265 
	C252.269104,76.452515 251.177475,80.104141 250.042236,82.098679 
	C250.042236,82.098686 250.027817,82.022865 249.773865,82.024506 
	C249.030014,82.290039 248.540131,82.553932 248.050232,82.817833 
	C241.972275,82.134064 245.900269,78.726425 246.774200,76.261215 
	C249.759689,74.170013 252.054916,72.085342 255.863007,73.593796 
	C257.385071,74.196716 259.483612,73.344231 261.319733,73.154251 
	C261.492554,72.678177 261.665405,72.202103 261.838226,71.726028 
	C255.446823,70.619652 259.304108,66.743050 259.020111,63.982216 
	C259.020203,63.978561 259.027924,63.966541 259.403961,63.952602 
	C261.592804,65.259163 263.405609,66.579666 265.218414,67.900162 
	C265.218414,67.900162 265.072144,67.920578 265.098907,68.213959 
	C265.529999,68.947289 265.934296,69.387245 266.338623,69.827202 
	C266.338623,69.827202 266.261871,69.946266 266.174805,70.260315 
	C267.009277,72.377052 267.930817,74.179726 268.852356,75.982407 
z"/>
<path fill="#27A1DA" opacity="1.000000" stroke="none" 
	d="
M165.115143,55.945351 
	C172.054077,56.422718 177.076996,60.135456 177.974640,65.450539 
	C179.240936,72.948692 175.409592,79.216202 167.403381,82.019897 
	C166.963364,82.016060 166.847717,81.912552 166.885406,81.660568 
	C166.926727,81.238762 166.930389,81.068947 166.950531,80.680847 
	C166.966995,80.462563 166.984863,80.023247 166.976959,79.739471 
	C166.700958,78.981239 166.432861,78.506775 166.210999,77.685928 
	C170.597534,75.268188 172.011459,71.804283 172.121063,67.061607 
	C172.258789,61.101704 167.099884,60.698605 163.996155,57.815018 
	C164.395035,56.974716 164.755081,56.460033 165.115143,55.945351 
z"/>
<path fill="#2AA3DA" opacity="1.000000" stroke="none" 
	d="
M341.151550,54.957451 
	C341.151550,54.957451 341.598663,54.996765 341.853271,55.364388 
	C343.579498,56.835526 344.413971,58.080921 343.018860,59.822803 
	C338.350769,60.821735 337.233582,64.304344 337.002716,68.413452 
	C336.767731,72.596130 338.564178,75.200401 342.777313,76.056725 
	C343.231262,76.148987 343.563049,76.842476 343.513977,77.648621 
	C342.369141,79.408257 341.661774,80.776367 340.954437,82.144470 
	C336.053772,80.701607 332.137299,78.211906 331.250702,72.138191 
	C332.074829,67.520538 332.638306,63.541328 333.201782,59.562119 
	C333.201782,59.562119 333.353455,59.421333 333.752380,59.504108 
	C334.213623,59.246239 334.275909,58.905594 334.338196,58.564949 
	C334.338196,58.564949 334.443115,58.469189 334.797699,58.528549 
	C335.214661,58.247147 335.277039,57.906391 335.339386,57.565636 
	C335.339386,57.565632 335.403412,57.384369 335.772705,57.480988 
	C336.752472,57.013458 337.363007,56.449303 337.973511,55.885147 
	C337.973511,55.885143 337.978851,55.961231 338.258667,55.956062 
	C339.022400,55.604385 339.506317,55.257874 339.990265,54.911369 
	C339.990265,54.911369 339.987671,54.982822 340.262634,54.988586 
	C340.742249,54.982052 340.946899,54.969753 341.151550,54.957451 
z"/>
<path fill="#478FFE" opacity="1.000000" stroke="none" 
	d="
M96.635902,38.058258 
	C93.180717,36.781208 89.761345,34.531025 86.263908,34.402332 
	C73.790428,33.943363 61.283978,33.983398 48.804852,34.345810 
	C45.564056,34.439926 42.377289,36.394569 38.703079,37.217018 
	C38.147346,36.601833 38.054237,36.264275 37.961124,35.926712 
	C41.104534,32.659481 44.247940,29.392248 48.052845,26.023270 
	C49.167221,25.998890 49.620106,26.076260 50.065132,26.414875 
	C50.055725,27.024799 50.054173,27.373474 49.748856,27.926033 
	C48.293865,29.074118 47.142639,30.018324 45.991409,30.962530 
	C51.045078,32.092384 55.619812,32.067661 60.194191,32.097279 
	C71.397507,32.169815 82.600647,32.267437 94.055305,32.611557 
	C95.809494,34.535496 97.312233,36.202843 98.451370,37.893219 
	C97.603806,37.963589 97.119858,38.010921 96.635902,38.058258 
z"/>
<path fill="#1F9ED9" opacity="1.000000" stroke="none" 
	d="
M307.082062,55.915642 
	C309.170990,55.894707 311.259918,55.873775 313.594360,56.366753 
	C312.246155,58.214050 309.743683,59.266739 309.228882,60.933376 
	C307.675049,65.963860 309.063019,67.002647 316.065002,66.977371 
	C317.849915,66.977371 319.634827,66.977371 321.373291,66.977371 
	C321.950867,71.447784 321.950867,71.447784 309.938507,72.323921 
	C310.204224,73.956749 310.468933,75.583420 310.638916,77.707878 
	C308.138580,81.140198 307.792450,76.386681 306.004639,76.523773 
	C306.359558,69.342728 306.720825,62.629185 307.082062,55.915642 
z"/>
<path fill="#21A0DA" opacity="1.000000" stroke="none" 
	d="
M128.092453,60.055908 
	C128.092453,62.186096 128.092453,64.316284 128.092453,67.006065 
	C130.712463,67.006065 133.179092,66.779327 135.571106,67.103355 
	C136.737289,67.261330 137.764267,68.446739 138.854263,69.167076 
	C137.820816,69.778046 136.845779,70.741364 135.741409,70.924416 
	C133.638992,71.272903 131.462662,71.175644 128.718842,71.706337 
	C127.352188,73.737686 126.583733,75.326180 125.815277,76.914665 
	C125.212708,76.871849 124.610130,76.829025 124.007561,76.786209 
	C124.007561,69.570236 124.007561,62.354259 124.007561,55.138287 
	C127.371033,55.093418 130.734512,55.048553 134.465134,55.413933 
	C133.248581,56.501179 131.595856,57.056900 130.108551,57.903305 
	C129.292480,58.367729 128.755356,59.322330 128.092453,60.055908 
z"/>
<path fill="#38A9DD" opacity="1.000000" stroke="none" 
	d="
M187.987473,55.146763 
	C189.463684,55.146763 190.939880,55.146763 192.940292,55.146763 
	C192.940292,62.603424 192.940292,70.095375 192.940292,77.954445 
	C196.379456,77.954445 199.339493,77.679825 202.205124,78.080467 
	C203.471146,78.257469 204.545731,79.803711 205.088013,80.656738 
	C200.741135,80.303635 196.991562,79.679352 193.296890,79.915192 
	C191.887787,80.005150 188.426208,79.060318 188.990280,82.852585 
	C188.393509,82.771797 187.796738,82.691010 187.424347,81.996262 
	C187.799530,79.574654 187.950348,77.766998 188.477844,75.910378 
	C191.343994,73.241219 191.833130,64.371521 189.547913,62.150398 
	C189.278961,61.888992 188.587875,62.061928 188.063934,61.602791 
	C188.019424,59.163631 188.003448,57.155197 187.987473,55.146763 
z"/>
<path fill="#1778FC" opacity="1.000000" stroke="none" 
	d="
M93.527817,108.554108 
	C93.758690,109.026566 93.533623,109.634735 93.158707,110.533554 
	C92.203293,111.205017 91.397743,111.585846 89.944809,111.628166 
	C74.192253,111.239235 59.087082,111.188797 43.981911,111.138367 
	C43.690701,110.955467 43.399490,110.772575 43.054775,110.086784 
	C43.013969,109.415062 43.026672,109.246239 43.039375,109.077408 
	C59.716877,108.948212 76.394379,108.819008 93.527817,108.554108 
z"/>
<path fill="#A8BEDF" opacity="1.000000" stroke="none" 
	d="
M50.072987,26.153629 
	C49.620106,26.076260 49.167221,25.998890 48.373928,25.869823 
	C50.949627,25.219561 53.856319,24.164776 56.783535,24.104366 
	C67.346283,23.886372 77.917213,23.908178 88.482262,24.048742 
	C91.855774,24.093628 95.220634,24.788719 98.256554,25.580658 
	C81.973434,26.034550 66.023209,26.094090 50.072987,26.153629 
z"/>
<path fill="#59B6E0" opacity="1.000000" stroke="none" 
	d="
M259.020020,63.985870 
	C259.304108,66.743050 255.446823,70.619652 261.838226,71.726028 
	C261.665405,72.202103 261.492554,72.678177 261.319733,73.154251 
	C259.483612,73.344231 257.385071,74.196716 255.863007,73.593796 
	C252.054916,72.085342 249.759689,74.170013 247.107712,76.066483 
	C248.723236,71.686333 250.507126,67.475327 252.851837,63.272278 
	C253.736603,64.685089 254.060562,66.089943 254.441132,67.740311 
	C256.435883,66.104721 257.727936,65.045296 259.020020,63.985870 
z"/>
<path fill="#6E9CF7" opacity="1.000000" stroke="none" 
	d="
M106.011383,96.601151 
	C105.538658,95.379105 105.056236,93.783241 105.052460,92.186249 
	C105.005714,72.432114 105.028740,52.677814 105.049522,32.456108 
	C105.476288,35.738110 105.965599,39.481403 106.261345,43.239925 
	C106.386436,44.829708 106.104439,46.451530 106.010956,48.948631 
	C106.007957,54.311394 105.890961,58.787609 106.023849,63.256386 
	C106.179359,68.486252 106.552597,73.709648 106.831390,78.935852 
	C106.628960,84.699501 106.426521,90.463158 106.011383,96.601151 
z"/>
<path fill="#26A2DB" opacity="1.000000" stroke="none" 
	d="
M159.011368,81.849960 
	C153.207016,81.277794 149.937424,77.977974 148.441132,70.425468 
	C150.715347,70.853752 151.925446,70.888206 152.101364,68.263184 
	C152.176086,67.148018 153.408295,66.110413 154.063889,65.464302 
	C153.246918,70.920341 155.203339,74.811615 159.029449,78.264938 
	C159.013809,79.076691 159.008469,79.540657 158.994095,80.247498 
	C158.985077,80.490372 159.012421,80.975700 159.009506,81.194260 
	C159.006592,81.412819 159.011368,81.849960 159.011368,81.849960 
z"/>
<path fill="#50AEDA" opacity="1.000000" stroke="none" 
	d="
M123.572449,55.093334 
	C124.007561,62.354259 124.007561,69.570236 124.007561,76.786209 
	C124.610130,76.829025 125.212708,76.871849 125.815277,76.914665 
	C126.583733,75.326180 127.352188,73.737686 128.478653,72.055679 
	C128.445892,75.010338 128.055115,78.058510 127.599220,81.614700 
	C126.453857,81.876457 124.854073,82.242073 122.804466,82.710495 
	C122.535210,81.666100 122.047882,80.636925 122.039185,79.603722 
	C121.978149,72.352882 121.975677,65.100677 122.071213,57.850449 
	C122.083580,56.911907 122.765533,55.982185 123.572449,55.093334 
z"/>
<path fill="#27A1DA" opacity="1.000000" stroke="none" 
	d="
M154.114487,65.037567 
	C153.408295,66.110413 152.176086,67.148018 152.101364,68.263184 
	C151.925446,70.888206 150.715347,70.853752 148.517456,70.049652 
	C148.126663,69.248718 148.084412,68.495804 148.481613,67.256790 
	C149.183060,65.284111 149.445038,63.797543 149.707031,62.310978 
	C152.245773,59.949970 154.784500,57.588959 157.893387,55.409771 
	C159.006027,56.759995 159.548508,57.928398 160.076126,59.071404 
	C160.061264,59.046005 160.118378,59.059467 159.894836,59.128120 
	C159.381378,59.341122 159.164032,59.558147 158.718124,59.978409 
	C157.642853,60.418270 156.868683,60.727581 155.766739,61.057949 
	C154.760330,61.597435 154.081696,62.115856 153.403076,62.634277 
	C153.877228,63.088604 154.351379,63.542927 154.867859,64.244942 
	C154.644958,64.674286 154.379715,64.855927 154.114487,65.037567 
z"/>
<path fill="#3EABDD" opacity="1.000000" stroke="none" 
	d="
M315.855896,66.622604 
	C309.063019,67.002647 307.675049,65.963860 309.228882,60.933376 
	C309.743683,59.266739 312.246155,58.214050 313.936096,56.532791 
	C315.683563,56.101665 317.351257,56.134266 318.981079,55.901379 
	C320.499359,55.684429 321.977295,55.184967 323.726837,55.499260 
	C322.338379,63.710316 315.111908,57.758820 311.219208,60.803925 
	C311.219208,62.128174 311.219208,63.869892 311.219208,65.757103 
	C312.767212,65.935669 314.207001,66.101753 315.855896,66.622604 
z"/>
<path fill="#26A3DD" opacity="1.000000" stroke="none" 
	d="
M341.194458,82.496155 
	C341.661774,80.776367 342.369141,79.408257 343.452667,78.025108 
	C343.828857,78.010063 343.975586,78.432831 344.189758,78.924011 
	C345.568512,79.259377 346.733154,79.103569 347.897766,78.947762 
	C350.108765,78.373474 352.310608,77.496185 354.536896,77.429131 
	C355.123718,77.411446 355.785950,79.896873 357.172211,82.847832 
	C351.024109,82.847832 346.229279,82.847832 341.194458,82.496155 
z"/>
<path fill="#37ABE0" opacity="1.000000" stroke="none" 
	d="
M343.393250,59.760666 
	C344.413971,58.080921 343.579498,56.835526 342.063416,55.443302 
	C346.985840,52.643452 351.385681,55.256287 356.619354,56.240791 
	C355.690948,58.278004 355.054047,59.675510 354.666412,60.526062 
	C350.635254,60.219982 347.201416,59.959255 343.393250,59.760666 
z"/>
<path fill="#43B0E3" opacity="1.000000" stroke="none" 
	d="
M284.059204,76.928375 
	C285.043488,75.117065 286.499023,73.406227 286.911194,71.472939 
	C287.699249,67.776421 287.893463,63.953308 288.738708,60.104965 
	C289.095917,66.022606 289.278687,72.034309 288.855957,78.003120 
	C288.734619,79.716293 286.864105,81.305588 285.216125,82.544205 
	C284.444214,80.400612 284.251709,78.664490 284.059204,76.928375 
z"/>
<path fill="#62A1FF" opacity="1.000000" stroke="none" 
	d="
M35.165276,99.990395 
	C35.110874,80.331718 35.048077,60.673046 35.034344,41.014336 
	C35.033825,40.267757 35.507767,39.520855 36.151928,38.401978 
	C36.543240,38.029858 36.917767,38.047165 36.931286,38.366280 
	C36.957291,39.111633 36.969776,39.537872 36.701580,40.276230 
	C36.279716,42.565544 36.022797,44.542313 36.015446,46.520012 
	C35.949242,64.332039 35.926826,82.144234 35.710045,99.965988 
	C35.528522,99.975601 35.165276,99.990395 35.165276,99.990395 
z"/>
<path fill="#26A3DD" opacity="1.000000" stroke="none" 
	d="
M189.452484,82.920212 
	C188.426208,79.060318 191.887787,80.005150 193.296890,79.915192 
	C196.991562,79.679352 200.741135,80.303635 204.785431,80.817215 
	C203.448746,81.702477 201.831512,82.774300 200.134552,82.920441 
	C196.751083,83.211815 193.323853,82.994843 189.452484,82.920212 
z"/>
<path fill="#30A6DC" opacity="1.000000" stroke="none" 
	d="
M259.020111,63.982216 
	C257.727936,65.045296 256.435883,66.104721 254.441132,67.740311 
	C254.060562,66.089943 253.736603,64.685089 253.165344,63.097248 
	C254.237946,60.477043 255.557846,58.039829 257.381744,55.374397 
	C258.266479,58.086296 258.647186,61.026421 259.027924,63.966541 
	C259.027924,63.966541 259.020203,63.978561 259.020111,63.982216 
z"/>
<path fill="#5FA2C2" opacity="1.000000" stroke="none" 
	d="
M213.605133,55.278854 
	C214.002563,60.069771 213.840897,65.015015 214.062256,69.943069 
	C214.144577,71.776382 215.123276,73.569443 215.884338,75.725357 
	C216.739258,78.141174 217.403091,80.212494 218.154938,82.558388 
	C217.059357,82.558388 215.266418,82.558388 213.198105,82.558388 
	C213.198105,73.572243 213.198105,64.499306 213.605133,55.278854 
z"/>
<path fill="#1477FC" opacity="1.000000" stroke="none" 
	d="
M50.065132,26.414875 
	C66.023209,26.094090 81.973434,26.034550 98.381668,25.957214 
	C98.839684,25.939419 98.983574,26.382038 98.540756,26.662395 
	C93.627174,27.115702 89.156418,27.288647 84.240738,27.450603 
	C72.548096,27.533794 61.300358,27.627972 50.052620,27.722151 
	C50.054173,27.373474 50.055725,27.024799 50.065132,26.414875 
z"/>
<path fill="#6FA7FC" opacity="1.000000" stroke="none" 
	d="
M84.685654,27.461594 
	C89.156418,27.288647 93.627174,27.115702 98.561935,26.894142 
	C99.315056,27.027662 99.604187,27.209799 99.975311,27.638964 
	C100.041718,28.620663 100.026138,29.355330 99.608200,30.529486 
	C97.407852,31.410698 95.609879,31.852423 93.734604,31.927341 
	C90.666763,30.194220 87.676208,28.827906 84.685654,27.461594 
z"/>
<path fill="#38A9DD" opacity="1.000000" stroke="none" 
	d="
M128.545288,60.025848 
	C128.755356,59.322330 129.292480,58.367729 130.108551,57.903305 
	C131.595856,57.056900 133.248581,56.501179 134.918777,55.484734 
	C136.796356,55.145287 138.587448,55.145287 140.276611,55.145287 
	C141.589417,58.853123 140.286835,60.388325 136.350143,60.031376 
	C133.918396,59.810883 131.450043,59.993912 128.545288,60.025848 
z"/>
<path fill="#84A6DB" opacity="1.000000" stroke="none" 
	d="
M44.218208,111.495651 
	C59.087082,111.188797 74.192253,111.239235 89.605026,111.557373 
	C74.759926,111.834373 59.607212,111.843658 44.218208,111.495651 
z"/>
<path fill="#50A8D2" opacity="1.000000" stroke="none" 
	d="
M284.037964,76.468170 
	C284.251709,78.664490 284.444214,80.400612 284.805908,82.467941 
	C283.982910,81.511787 282.203064,80.265251 282.133850,78.930023 
	C281.824188,72.957573 282.002167,66.959824 281.951721,60.508675 
	C282.597015,61.273773 283.814117,62.467594 283.896667,63.735271 
	C284.162018,67.811501 284.008606,71.914986 284.037964,76.468170 
z"/>
<path fill="#7CC3E4" opacity="1.000000" stroke="none" 
	d="
M235.999634,81.993965 
	C235.978226,75.316223 235.956818,68.638474 235.715393,61.207741 
	C234.690643,59.026257 233.885910,57.597767 233.081177,56.169281 
	C234.153641,55.780613 235.226105,55.391941 236.648560,55.542809 
	C237.010666,64.731339 237.022797,73.380318 237.034927,82.029305 
	C237.034927,82.029305 237.050842,82.034615 236.790375,82.021080 
	C236.353165,82.003021 236.176407,81.998489 235.999634,81.993965 
z"/>
<path fill="#79BFE0" opacity="1.000000" stroke="none" 
	d="
M259.403961,63.952602 
	C258.647186,61.026421 258.266479,58.086296 257.533813,55.053139 
	C258.144623,55.126137 259.703156,54.983429 259.974792,55.507607 
	C261.938690,59.297256 263.642395,63.221741 265.323486,67.501839 
	C263.405609,66.579666 261.592804,65.259163 259.403961,63.952602 
z"/>
<path fill="#5CB3DA" opacity="1.000000" stroke="none" 
	d="
M250.378693,81.935951 
	C251.177475,80.104141 252.269104,76.452515 253.456039,76.421265 
	C257.235260,76.321770 261.753754,73.829926 264.889893,78.653603 
	C258.845459,76.621597 253.594543,77.630035 250.378693,81.935951 
z"/>
<path fill="#3EABDD" opacity="1.000000" stroke="none" 
	d="
M306.010956,76.991280 
	C307.792450,76.386681 308.138580,81.140198 310.820068,78.072052 
	C314.964844,78.036949 318.833771,78.135437 322.640228,78.614578 
	C322.377563,79.004509 322.177429,79.013786 321.535828,79.010559 
	C318.393372,79.662796 315.692383,80.327538 312.557495,80.995544 
	C310.098602,81.004326 308.073608,81.009857 305.827637,81.006226 
	C305.606598,80.997055 305.164337,80.983047 305.164337,80.983047 
	C305.122253,80.232307 305.080200,79.481560 305.293060,78.235489 
	C305.768158,77.531258 305.922485,77.281631 306.010956,76.991280 
z"/>
<path fill="#55AAFF" opacity="1.000000" stroke="none" 
	d="
M106.905655,78.477966 
	C106.552597,73.709648 106.179359,68.486252 106.023849,63.256386 
	C105.890961,58.787609 106.007957,54.311394 106.029144,49.362785 
	C106.362564,50.878513 106.929771,52.866650 106.956024,54.861908 
	C107.057549,62.580063 106.986618,70.300491 106.905655,78.477966 
z"/>
<path fill="#70BDE1" opacity="1.000000" stroke="none" 
	d="
M237.407608,81.805725 
	C237.022797,73.380318 237.010666,64.731339 236.999832,55.624542 
	C237.330948,56.610271 237.937897,58.052647 237.943970,59.497540 
	C237.974899,66.858719 237.850388,74.220551 237.407608,81.805725 
z"/>
<path fill="#7CC3E4" opacity="1.000000" stroke="none" 
	d="
M187.577438,55.287186 
	C188.003448,57.155197 188.019424,59.163631 188.031281,62.063171 
	C188.051819,67.289299 188.076477,71.624313 188.101151,75.959335 
	C187.950348,77.766998 187.799530,79.574654 187.409958,81.680283 
	C187.169937,73.128029 187.168671,64.277817 187.577438,55.287186 
z"/>
<path fill="#48A9D5" opacity="1.000000" stroke="none" 
	d="
M306.004639,76.523773 
	C305.922485,77.281631 305.768158,77.531258 305.364319,77.864944 
	C305.125397,71.090179 305.023010,64.190193 305.087250,57.291771 
	C305.093750,56.595108 306.106567,55.907818 306.867249,55.565910 
	C306.720825,62.629185 306.359558,69.342728 306.004639,76.523773 
z"/>
<path fill="#1F9ED9" opacity="1.000000" stroke="none" 
	d="
M312.991425,80.992279 
	C315.692383,80.327538 318.393372,79.662796 321.544037,79.366669 
	C321.994965,80.448868 321.996185,81.162437 321.997375,81.876015 
	C320.924469,81.915565 319.851562,81.955109 318.338684,81.643303 
	C317.584778,81.003365 317.270874,80.714783 316.956970,80.426201 
	C316.642609,80.898659 316.328247,81.371117 316.013855,81.843567 
	C315.254852,81.893593 314.495880,81.943619 313.365784,81.705795 
	C312.994720,81.417946 312.991425,80.992279 312.991425,80.992279 
z"/>
<path fill="#50AEDA" opacity="1.000000" stroke="none" 
	d="
M332.923218,59.753521 
	C332.638306,63.541328 332.074829,67.520538 331.210938,71.766296 
	C328.649872,67.596298 330.764496,63.787434 332.923218,59.753521 
z"/>
<path fill="#30A6DC" opacity="1.000000" stroke="none" 
	d="
M232.670654,56.276978 
	C233.885910,57.597767 234.690643,59.026257 235.673035,60.742973 
	C234.671616,62.763165 233.492538,64.495125 232.130585,66.063599 
	C232.051834,62.728298 232.155991,59.556484 232.670654,56.276978 
z"/>
<path fill="#26A2DB" opacity="1.000000" stroke="none" 
	d="
M160.090988,59.096802 
	C159.548508,57.928398 159.006027,56.759995 158.248642,55.369537 
	C160.279251,55.203094 162.524765,55.258713 164.942703,55.629841 
	C164.755081,56.460033 164.395035,56.974716 163.658737,57.872116 
	C162.218658,58.535492 161.154831,58.816147 160.090988,59.096802 
z"/>
<path fill="#61AED3" opacity="1.000000" stroke="none" 
	d="
M235.597733,81.976517 
	C236.176407,81.998489 236.353165,82.003021 236.794220,82.029335 
	C235.248383,82.455757 233.438232,82.860390 230.968323,83.412498 
	C230.968323,79.838341 230.968323,76.889481 230.902832,73.484863 
	C231.234848,72.947762 231.632324,72.866425 232.029816,72.785088 
	C232.032074,74.717674 231.639542,76.767395 232.166748,78.544220 
	C232.558868,79.865746 234.142761,80.833656 235.597733,81.976517 
z"/>
<path fill="#478FFE" opacity="1.000000" stroke="none" 
	d="
M35.090229,100.382538 
	C35.165276,99.990395 35.528522,99.975601 35.777443,100.261002 
	C36.576000,100.988213 37.125637,101.430023 37.675274,101.871834 
	C37.997726,103.511307 38.320183,105.150772 38.348343,107.005760 
	C37.041092,105.072411 36.028137,102.923546 35.090229,100.382538 
z"/>
<path fill="#61AED3" opacity="1.000000" stroke="none" 
	d="
M218.500183,73.009857 
	C219.952118,72.360138 221.770401,71.347023 223.692642,71.078674 
	C225.554016,70.818810 227.522308,71.325035 229.711685,71.811699 
	C226.290482,72.409836 222.601257,72.691055 218.500183,73.009857 
z"/>
<path fill="#61AED3" opacity="1.000000" stroke="none" 
	d="
M167.034668,82.046707 
	C165.412033,84.703758 163.425720,84.680435 161.504364,82.377121 
	C163.470840,81.989578 165.159271,81.951065 166.847717,81.912552 
	C166.847717,81.912552 166.963364,82.016060 167.034668,82.046707 
z"/>
<path fill="#37ABE0" opacity="1.000000" stroke="none" 
	d="
M166.885406,81.660568 
	C165.159271,81.951065 163.470840,81.989578 161.358856,82.049423 
	C160.505569,82.037392 160.075821,82.004044 159.328735,81.910324 
	C159.011368,81.849960 159.006592,81.412819 159.450684,81.188599 
	C162.241196,80.942619 164.587631,80.920876 166.934052,80.899124 
	C166.930389,81.068947 166.926727,81.238762 166.885406,81.660568 
z"/>
<path fill="#79BFE0" opacity="1.000000" stroke="none" 
	d="
M268.921844,75.616577 
	C267.930817,74.179726 267.009277,72.377052 266.115021,70.222321 
	C267.091980,71.663765 268.041656,73.457268 268.921844,75.616577 
z"/>
<path fill="#2DA9E3" opacity="1.000000" stroke="none" 
	d="
M312.557495,80.995544 
	C312.991425,80.992279 312.994720,81.417946 312.991180,81.630760 
	C311.301727,81.897217 309.615784,81.950851 307.283936,81.911232 
	C306.441528,81.550446 306.245087,81.282913 306.048645,81.015381 
	C308.073608,81.009857 310.098602,81.004326 312.557495,80.995544 
z"/>
<path fill="#26A2DB" opacity="1.000000" stroke="none" 
	d="
M149.407394,62.542488 
	C149.445038,63.797543 149.183060,65.284111 148.548676,66.884430 
	C148.486755,65.590126 148.797256,64.182060 149.407394,62.542488 
z"/>
<path fill="#2DA9E3" opacity="1.000000" stroke="none" 
	d="
M322.350647,81.938766 
	C321.996185,81.162437 321.994965,80.448868 321.985535,79.379181 
	C322.177429,79.013786 322.377563,79.004509 322.878265,78.981659 
	C323.020508,79.979240 322.862213,80.990372 322.350647,81.938766 
z"/>
<path fill="#2DA9E3" opacity="1.000000" stroke="none" 
	d="
M347.510254,78.969093 
	C346.733154,79.103569 345.568512,79.259377 344.214661,79.146362 
	C345.057892,78.915169 346.090332,78.952797 347.510254,78.969093 
z"/>
<path fill="#2DA9E3" opacity="1.000000" stroke="none" 
	d="
M316.340515,81.905975 
	C316.328247,81.371117 316.642609,80.898659 316.956970,80.426201 
	C317.270874,80.714783 317.584778,81.003365 317.942200,81.567993 
	C317.546173,81.885483 317.106689,81.926933 316.340515,81.905975 
z"/>
<path fill="#4690FE" opacity="1.000000" stroke="none" 
	d="
M36.917767,38.047165 
	C36.917767,38.047165 36.543240,38.029858 36.355877,38.023701 
	C36.576000,37.384071 36.983482,36.750603 37.676044,36.021923 
	C38.054237,36.264275 38.147346,36.601833 38.403397,37.445679 
	C38.566334,37.951958 38.525841,38.047752 38.099125,38.040714 
	C37.420860,38.038174 37.169312,38.042667 36.917767,38.047165 
z"/>
<path fill="#48A9D5" opacity="1.000000" stroke="none" 
	d="
M305.827637,81.006218 
	C306.245087,81.282913 306.441528,81.550446 306.862854,81.935181 
	C306.402039,81.916443 305.716339,81.780487 305.097504,81.313797 
	C305.164337,80.983047 305.606598,80.997055 305.827637,81.006218 
z"/>
<path fill="#50AEDA" opacity="1.000000" stroke="none" 
	d="
M337.671448,55.934662 
	C337.363007,56.449303 336.752472,57.013458 335.839172,57.411568 
	C336.147369,56.825073 336.758392,56.404625 337.671448,55.934662 
z"/>
<path fill="#5CB3DA" opacity="1.000000" stroke="none" 
	d="
M248.354919,82.875572 
	C248.540131,82.553932 249.030014,82.290039 249.810501,82.036644 
	C249.620590,82.342537 249.140091,82.637924 248.354919,82.875572 
z"/>
<path fill="#79BFE0" opacity="1.000000" stroke="none" 
	d="
M266.442261,69.496552 
	C265.934296,69.387245 265.529999,68.947289 265.161682,68.175064 
	C265.647095,68.283829 266.096527,68.724869 266.442261,69.496552 
z"/>
<path fill="#50AEDA" opacity="1.000000" stroke="none" 
	d="
M339.673767,54.950989 
	C339.506317,55.257874 339.022400,55.604385 338.221191,55.948837 
	C338.388397,55.628056 338.872833,55.309330 339.673767,54.950989 
z"/>
<path fill="#579BFD" opacity="1.000000" stroke="none" 
	d="
M42.688530,108.985123 
	C43.026672,109.246239 43.013969,109.415062 42.974873,109.836121 
	C42.354115,109.930511 41.759750,109.772659 41.032082,109.330269 
	C41.378410,108.994766 41.858044,108.943802 42.688530,108.985123 
z"/>
<path fill="#50AEDA" opacity="1.000000" stroke="none" 
	d="
M341.044830,54.709019 
	C340.946899,54.969753 340.742249,54.982052 340.230591,54.972767 
	C340.261749,54.787651 340.599915,54.624119 341.044830,54.709019 
z"/>
<path fill="#50AEDA" opacity="1.000000" stroke="none" 
	d="
M335.147583,57.636070 
	C335.277039,57.906391 335.214661,58.247147 334.854156,58.485447 
	C334.570892,58.087433 334.704132,57.861942 335.147583,57.636070 
z"/>
<path fill="#50AEDA" opacity="1.000000" stroke="none" 
	d="
M334.147278,58.635365 
	C334.275909,58.905594 334.213623,59.246239 333.853699,59.482956 
	C333.573273,59.085377 333.706696,58.860962 334.147278,58.635365 
z"/>
<path fill="#0668FF" opacity="1.000000" stroke="none" 
	d="
M37.713318,101.413910 
	C37.125637,101.430023 36.576000,100.988213 35.958965,100.251389 
	C35.926826,82.144234 35.949242,64.332039 36.015446,46.520012 
	C36.022797,44.542313 36.279716,42.565544 36.920113,40.308891 
	C37.419327,40.029442 37.859764,40.059010 37.859764,40.059010 
	C37.823631,60.358006 37.787498,80.656998 37.713318,101.413910 
z"/>
<path fill="#116EFF" opacity="1.000000" stroke="none" 
	d="
M96.780098,38.447308 
	C97.119858,38.010921 97.603806,37.963589 98.530563,38.224121 
	C98.995529,38.981853 99.017693,39.431725 99.024147,40.357780 
	C99.027054,60.907536 99.045670,80.981110 99.064285,101.054680 
	C98.753731,101.955025 98.443184,102.855377 97.776031,103.874588 
	C97.494453,83.404999 97.581055,62.816566 97.613297,42.228046 
	C97.615067,41.097843 97.164375,39.966938 96.780098,38.447308 
z"/>
<path fill="#418CFF" opacity="1.000000" stroke="none" 
	d="
M57.045197,41.924156 
	C63.161613,41.924114 68.787788,41.924114 74.413963,41.924114 
	C74.421059,42.583584 74.428154,43.243053 74.435249,43.902527 
	C65.431473,44.214603 56.416100,44.054787 47.401672,43.933403 
	C47.372719,43.263672 47.343761,42.593937 47.314808,41.924202 
	C50.394855,41.924202 53.474907,41.924202 57.045197,41.924156 
z"/>
<path fill="#62A1FF" opacity="1.000000" stroke="none" 
	d="
M52.187363,91.899673 
	C50.124359,91.693054 48.525707,91.486504 46.927059,91.279953 
	C46.969322,90.770729 47.011585,90.261513 47.053848,89.752289 
	C52.260464,89.752289 57.467079,89.752289 62.673695,89.752289 
	C62.712517,90.358704 62.751343,90.965126 62.790169,91.571541 
	C59.410683,91.680946 56.031197,91.790344 52.187363,91.899673 
z"/>
<path fill="#83B5FF" opacity="1.000000" stroke="none" 
	d="
M61.841728,72.468231 
	C56.551250,72.698936 51.603378,72.698936 45.468430,72.698936 
	C49.156639,69.737541 59.711075,69.180771 62.250603,70.956841 
	C62.436260,71.086693 62.215923,71.797058 61.841728,72.468231 
z"/>
<path fill="#62A1FF" opacity="1.000000" stroke="none" 
	d="
M86.649590,91.875244 
	C83.805725,91.747841 81.400604,91.603737 78.995491,91.459641 
	C79.015656,90.722946 79.035820,89.986252 79.055984,89.249557 
	C81.982933,89.249557 84.909889,89.249557 87.836838,89.249557 
	C87.587341,90.119225 87.337837,90.988884 86.649590,91.875244 
z"/>
<path fill="#3A88FF" opacity="1.000000" stroke="none" 
	d="
M82.966293,80.051056 
	C85.228439,80.188271 87.031601,80.325378 88.834763,80.462486 
	C88.799568,80.862503 88.764374,81.262520 88.729187,81.662537 
	C84.606499,81.662537 80.483818,81.662537 76.361130,81.662537 
	C76.319000,81.286240 76.276871,80.909935 76.234741,80.533638 
	C78.325592,80.372749 80.416451,80.211861 82.966293,80.051056 
z"/>
<path fill="#478FFE" opacity="1.000000" stroke="none" 
	d="
M80.229103,63.214233 
	C78.620720,63.028385 77.467972,62.842804 76.315216,62.657227 
	C76.342422,62.300194 76.369621,61.943165 76.396828,61.586132 
	C80.479401,61.586132 84.561974,61.586132 88.644547,61.586132 
	C88.676140,62.128922 88.707726,62.671715 88.739319,63.214504 
	C86.054451,63.214504 83.369591,63.214504 80.229103,63.214233 
z"/>
<path fill="#3A88FF" opacity="1.000000" stroke="none" 
	d="
M76.719940,100.698891 
	C80.438583,99.834587 84.523521,99.205460 88.608459,98.576340 
	C88.655090,99.362251 88.701721,100.148163 88.748360,100.934074 
	C84.860985,100.934074 80.973610,100.934074 76.719940,100.698891 
z"/>
<path fill="#478FFE" opacity="1.000000" stroke="none" 
	d="
M38.016266,39.750114 
	C37.859764,40.059010 37.419327,40.029442 37.200794,39.996780 
	C36.969776,39.537872 36.957291,39.111633 36.931286,38.366280 
	C37.169312,38.042667 37.420860,38.038174 38.052052,38.062809 
	C38.345383,38.541702 38.259071,38.991459 38.016266,39.750114 
z"/>
<path fill="#000000" opacity="1.000000" stroke="none" 
	d="
M99.039856,39.881592 
	C99.017693,39.431725 98.995529,38.981853 98.894173,38.201088 
	C97.312233,36.202843 95.809494,34.535496 94.083702,32.604195 
	C93.860657,32.340244 93.811897,32.294147 93.811897,32.294147 
	C95.609879,31.852423 97.407852,31.410698 99.606689,30.897133 
	C101.008789,32.320824 102.010025,33.816357 103.018684,36.077518 
	C103.072533,38.219101 103.118958,39.595051 103.165382,40.971001 
	C103.114204,58.676891 103.063034,76.382782 103.012955,94.887306 
	C102.497559,96.864845 101.981056,98.043755 101.464554,99.222664 
	C101.464554,99.222664 101.207832,99.381248 101.115387,99.560516 
	C101.022949,99.739792 101.004784,99.856743 101.004784,99.856743 
	C101.004784,99.856743 100.542610,99.971359 100.278046,99.485107 
	C100.010902,80.971375 100.033798,62.943806 99.963730,44.916595 
	C99.957199,43.237087 99.361824,41.559872 99.039856,39.881592 
z"/>
<path fill="#2E7FFF" opacity="1.000000" stroke="none" 
	d="
M99.024139,40.357780 
	C99.361824,41.559872 99.957199,43.237087 99.963730,44.916595 
	C100.033798,62.943806 100.010902,80.971375 100.040924,99.463699 
	C99.875526,100.207909 99.682678,100.487259 99.277061,100.910645 
	C99.045670,80.981110 99.027054,60.907536 99.024139,40.357780 
z"/>
<path fill="#6FA7FC" opacity="1.000000" stroke="none" 
	d="
M101.782669,99.327087 
	C101.981056,98.043755 102.497559,96.864845 103.086708,95.351929 
	C102.806503,96.489128 102.453636,97.960320 101.782669,99.327087 
z"/>
<path fill="#6FA7FC" opacity="1.000000" stroke="none" 
	d="
M103.388184,40.718788 
	C103.118958,39.595051 103.072533,38.219101 103.095695,36.434845 
	C103.313858,37.506546 103.462425,38.986561 103.388184,40.718788 
z"/>
<path fill="#6FA7FC" opacity="1.000000" stroke="none" 
	d="
M101.101074,100.006966 
	C101.004784,99.856743 101.022949,99.739792 101.069427,99.704224 
	C101.256638,99.845161 101.397369,100.021660 101.538094,100.198158 
	C101.424515,100.184502 101.310936,100.170845 101.101074,100.006966 
z"/>
<path fill="#000000" opacity="1.000000" stroke="none" 
	d="
M160.076126,59.071404 
	C161.154831,58.816147 162.218658,58.535492 163.619904,58.197739 
	C167.099884,60.698605 172.258789,61.101704 172.121063,67.061607 
	C172.011459,71.804283 170.597534,75.268188 165.999939,78.020073 
	C163.508331,78.439445 161.274033,78.178299 159.039719,77.917152 
	C155.203339,74.811615 153.246918,70.920341 154.063889,65.464302 
	C154.379715,64.855927 154.644958,64.674286 155.010941,63.943195 
	C155.439301,62.608135 155.766922,61.822514 156.094528,61.036888 
	C156.868683,60.727581 157.642853,60.418270 158.979141,60.004696 
	C159.733643,59.620106 159.926010,59.339787 160.118378,59.059467 
	C160.118378,59.059467 160.061264,59.046005 160.076126,59.071404 
z"/>
<path fill="#37ABE0" opacity="1.000000" stroke="none" 
	d="
M159.029449,78.264938 
	C161.274033,78.178299 163.508331,78.439445 165.953705,78.366455 
	C166.432861,78.506775 166.700958,78.981239 166.534653,79.728317 
	C163.734543,80.002167 161.368820,80.003395 159.003113,80.004623 
	C159.008469,79.540657 159.013809,79.076691 159.029449,78.264938 
z"/>
<path fill="#70BDE1" opacity="1.000000" stroke="none" 
	d="
M158.994095,80.247498 
	C161.368820,80.003395 163.734543,80.002167 166.542557,80.012093 
	C166.984863,80.023247 166.966995,80.462563 166.950531,80.680847 
	C164.587631,80.920876 162.241196,80.942619 159.453598,80.970032 
	C159.012421,80.975700 158.985077,80.490372 158.994095,80.247498 
z"/>
<path fill="#E7F0FF" opacity="1.000000" stroke="none" 
	d="
M93.734604,31.927341 
	C93.811897,32.294147 93.860657,32.340244 93.832260,32.347603 
	C82.600647,32.267437 71.397507,32.169815 60.194191,32.097279 
	C55.619812,32.067661 51.045078,32.092384 45.991409,30.962530 
	C47.142639,30.018324 48.293865,29.074118 49.748859,27.926033 
	C61.300358,27.627972 72.548096,27.533794 84.240738,27.450603 
	C87.676208,28.827906 90.666763,30.194220 93.734604,31.927341 
z"/>
<path fill="#21A0DA" opacity="1.000000" stroke="none" 
	d="
M188.477844,75.910378 
	C188.076477,71.624313 188.051819,67.289299 188.059814,62.493896 
	C188.587875,62.061928 189.278961,61.888992 189.547913,62.150398 
	C191.833130,64.371521 191.343994,73.241219 188.477844,75.910378 
z"/>
<path fill="#26A2DB" opacity="1.000000" stroke="none" 
	d="
M155.766739,61.057953 
	C155.766922,61.822514 155.439301,62.608135 154.968628,63.695503 
	C154.351379,63.542927 153.877228,63.088604 153.403076,62.634277 
	C154.081696,62.115856 154.760330,61.597435 155.766739,61.057953 
z"/>
<path fill="#26A2DB" opacity="1.000000" stroke="none" 
	d="
M159.894836,59.128120 
	C159.926010,59.339787 159.733643,59.620106 159.280258,59.874138 
	C159.164032,59.558147 159.381378,59.341122 159.894836,59.128120 
z"/>
</svg>