<?xml version="1.0" standalone="no"?>
<!DOCTYPE svg PUBLIC "-//W3C//DTD SVG 20010904//EN"
 "http://www.w3.org/TR/2001/REC-SVG-20010904/DTD/svg10.dtd">
<svg version="1.0" xmlns="http://www.w3.org/2000/svg"
 width="166.000000pt" height="185.000000pt" viewBox="0 0 166.000000 185.000000"
 preserveAspectRatio="xMidYMid meet">

<g transform="translate(0.000000,185.000000) scale(0.100000,-0.100000)"
fill="#000000" stroke="none">
<path d="M1135 1817 c4 -10 -28 -28 -120 -67 l-125 -53 -133 53 c-151 60 -127
62 -303 -21 -80 -37 -102 -52 -98 -63 3 -9 10 -16 15 -16 5 0 61 25 125 55 64
30 122 55 128 55 6 0 65 -22 131 -50 66 -27 125 -50 132 -50 6 0 69 25 139 55
90 39 131 52 139 45 9 -8 18 -1 34 25 11 19 17 35 13 35 -4 1 -24 3 -44 6 -30
4 -37 3 -33 -9z"/>
<path d="M440 1458 l0 -163 91 -35 c51 -19 95 -36 100 -38 4 -2 6 41 5 95 -2
54 -4 144 -5 201 l-1 102 -95 0 -95 0 0 -162z"/>
<path d="M984 1481 c-2 -2 -4 -65 -4 -138 l0 -134 46 33 c26 18 66 56 90 84
40 46 44 56 44 103 0 34 -4 51 -12 52 -53 3 -160 3 -164 0z"/>
<path d="M710 1256 l0 -53 57 -12 c31 -6 74 -11 95 -11 l38 0 0 65 0 65 -95 0
-95 0 0 -54z"/>
<path d="M1127 996 c-21 -19 -64 -42 -97 -52 -51 -17 -58 -22 -57 -44 2 -21
-3 -26 -27 -28 -36 -4 -58 14 -35 31 13 10 -7 12 -96 12 -105 0 -111 -1 -111
-20 1 -16 -5 -20 -34 -20 -33 0 -35 2 -32 31 3 28 0 31 -40 43 -24 7 -67 26
-95 42 -29 16 -55 29 -57 29 -3 0 -6 -33 -8 -72 l-3 -73 -42 -3 c-29 -2 -43
-8 -43 -18 0 -12 68 -14 475 -14 409 0 475 2 475 15 0 11 -16 15 -67 17 l-68
3 0 78 c0 42 0 77 0 77 0 -1 -17 -16 -38 -34z"/>
<path d="M20 663 l0 -28 562 0 563 0 3 -182 2 -183 25 0 25 0 0 179 0 179 27
7 c14 3 63 5 107 4 81 -2 81 -2 84 24 l3 27 -700 0 -701 0 0 -27z"/>
<path d="M21 601 c-11 -7 -12 -13 -3 -23 7 -9 12 -69 14 -164 3 -126 5 -149
19 -152 14 -2 15 8 11 78 l-5 80 32 0 c17 0 31 5 31 10 0 6 -13 10 -30 10
l-30 0 0 70 0 70 30 0 c20 0 30 5 30 15 0 11 -11 15 -42 15 -24 0 -49 -4 -57
-9z"/>
<path d="M240 590 c-6 -12 -9 -77 -8 -167 l3 -147 33 -8 c25 -7 40 -5 58 7 23
15 24 18 24 159 0 126 -2 145 -18 159 -26 24 -79 22 -92 -3z m75 -155 l0 -140
-27 -3 -28 -3 0 146 0 146 28 -3 27 -3 0 -140z"/>
<path d="M464 588 c3 -13 6 -89 6 -170 l0 -148 45 0 c52 0 61 17 13 22 l-33 3
-3 158 c-2 136 -5 157 -18 157 -12 0 -15 -6 -10 -22z"/>
<path d="M650 601 c0 -6 5 -13 10 -16 6 -4 10 -70 10 -166 0 -124 3 -160 13
-157 8 3 13 30 15 77 3 72 3 72 30 69 26 -3 27 -6 30 -65 3 -64 22 -97 43 -76
8 8 7 13 0 17 -7 5 -11 63 -11 167 0 133 -2 159 -15 159 -11 0 -15 -19 -17
-87 -3 -88 -3 -88 -30 -91 l-28 -3 0 68 c0 87 -7 113 -31 113 -11 0 -19 -4
-19 -9z"/>
<path d="M925 594 c-13 -13 -15 -40 -13 -172 2 -96 7 -157 13 -157 6 0 11 30
13 66 3 62 5 67 27 71 14 3 27 3 30 0 3 -3 5 -31 5 -62 0 -60 20 -94 41 -73 8
8 7 13 0 17 -7 5 -11 59 -11 152 0 160 -5 174 -59 174 -16 0 -37 -7 -46 -16z
m73 -91 c-3 -77 -3 -78 -30 -79 l-28 -1 0 78 0 79 30 0 31 0 -3 -77z"/>
<path d="M1292 597 c-7 -8 -11 -69 -11 -159 1 -158 2 -163 55 -174 36 -7 67
22 62 57 -4 32 -28 37 -28 5 0 -14 -8 -29 -17 -34 -33 -17 -43 -3 -43 58 0 55
1 59 25 62 35 4 36 22 3 26 -28 3 -28 4 -28 73 l0 70 28 -3 c23 -2 28 -8 30
-36 4 -37 25 -39 30 -3 6 37 -24 71 -62 71 -18 0 -38 -6 -44 -13z"/>
<path d="M1525 594 c-13 -13 -15 -39 -13 -167 l3 -151 33 -8 c43 -11 82 11 82
47 0 32 -27 34 -32 3 -2 -17 -11 -24 -30 -26 l-28 -3 0 146 0 146 28 -3 c24
-3 27 -7 30 -46 4 -55 26 -51 30 5 2 27 -2 46 -13 57 -21 21 -69 21 -90 0z"/>
</g>
</svg>
